<?xml version="1.0" standalone="no"?>
<!DOCTYPE svg PUBLIC "-//W3C//DTD SVG 20010904//EN"
 "http://www.w3.org/TR/2001/REC-SVG-20010904/DTD/svg10.dtd">
<svg version="1.0" xmlns="http://www.w3.org/2000/svg"
 width="157.000000pt" height="36.000000pt" viewBox="0 0 157.000000 36.000000"
 preserveAspectRatio="xMidYMid meet">

<g transform="translate(0.000000,36.000000) scale(0.100000,-0.100000)"
fill="#ffffff" stroke="none">
<path d="M4 349 c-3 -5 7 -14 23 -19 22 -8 41 -34 88 -120 33 -61 67 -112 76
-115 9 -3 48 1 88 10 72 15 119 19 110 10 -3 -2 -38 -11 -79 -20 -86 -18 -102
-29 -98 -64 4 -36 33 -35 33 1 -1 23 5 28 30 33 16 4 39 9 49 12 14 4 17 1 13
-9 -8 -22 8 -42 28 -34 12 4 15 13 11 30 -4 18 -1 25 14 29 23 6 26 29 7 45
-9 8 -38 5 -102 -9 -52 -11 -93 -15 -98 -10 -9 9 4 12 146 41 66 13 72 21 80
106 9 90 7 90 -163 54 -79 -16 -148 -30 -155 -30 -6 0 -16 10 -22 23 -12 24
-69 51 -79 36z m400 -27 c3 -5 3 -18 -1 -30 -7 -27 -70 -43 -84 -21 -16 26 -9
37 29 47 49 13 50 13 56 4z m-111 -44 c7 -26 9 -25 -25 -33 -30 -8 -46 11 -34
40 9 24 53 19 59 -7z m-83 -23 c0 -20 -7 -25 -37 -31 -29 -5 -39 -3 -50 11
-19 28 -17 31 30 42 51 11 57 9 57 -22z m190 -25 c0 -22 -43 -55 -60 -45 -5 3
-10 17 -10 30 0 18 6 25 28 28 15 2 30 5 35 6 4 0 7 -8 7 -19z m-92 -33 c3
-24 0 -27 -26 -27 -38 0 -52 37 -19 50 31 12 42 7 45 -23z m-83 -17 c0 -31
-34 -39 -59 -15 -22 22 -20 33 7 38 40 8 52 3 52 -23z"/>
<path d="M550 186 c0 -99 1 -106 20 -106 16 0 20 7 20 35 0 46 21 46 46 0 13
-24 26 -35 41 -35 28 0 28 4 2 41 l-20 29 20 26 c44 56 15 102 -71 111 l-58 6
0 -107z m98 47 c14 -27 3 -43 -29 -43 -26 0 -29 4 -29 30 0 25 4 30 25 30 13
0 28 -8 33 -17z"/>
<path d="M785 281 c-58 -24 -81 -103 -46 -159 40 -62 115 -70 167 -18 28 28
34 42 34 76 0 34 -6 48 -34 76 -35 35 -75 43 -121 25z m89 -47 c27 -27 31 -63
9 -92 -24 -33 -56 -39 -89 -18 -29 20 -33 79 -7 108 20 22 66 24 87 2z"/>
<path d="M977 284 c-4 -4 -7 -52 -7 -106 l0 -98 25 0 26 0 -3 102 c-2 83 -6
103 -18 106 -9 1 -19 0 -23 -4z"/>
<path d="M1082 274 c-43 -30 -24 -83 38 -108 29 -12 40 -21 38 -34 -4 -24 -46
-27 -69 -6 -16 14 -22 15 -32 5 -17 -17 34 -61 71 -61 47 0 74 26 70 68 -3 33
-8 39 -45 57 -23 10 -45 25 -48 33 -7 18 24 28 46 14 19 -12 49 -7 49 9 0 14
-44 39 -70 39 -14 0 -36 -7 -48 -16z"/>
<path d="M1240 185 l0 -105 65 0 c51 0 65 3 65 15 0 11 -12 15 -45 15 -43 0
-45 1 -45 30 0 28 2 30 40 30 29 0 40 4 40 15 0 11 -11 15 -40 15 -36 0 -40 3
-40 25 0 23 4 25 45 25 38 0 45 3 45 20 0 18 -7 20 -65 20 l-65 0 0 -105z"/>
<path d="M1410 186 c0 -99 1 -106 20 -106 16 0 20 7 20 35 0 45 20 45 44 0 14
-25 26 -35 43 -35 28 0 29 4 2 41 l-20 29 20 26 c44 56 15 102 -71 111 l-58 6
0 -107z m95 34 c0 -20 -6 -26 -27 -28 -25 -3 -28 0 -28 28 0 28 3 31 28 28 21
-2 27 -8 27 -28z"/>
</g>
</svg>
